<?xml version="1.0" encoding="UTF-8"?>
<svg width="162px" height="162px" viewBox="0 0 162 162" version="1.1" xmlns="http://www.w3.org/2000/svg" xmlns:xlink="http://www.w3.org/1999/xlink">
    <!-- Generator: Sketch 52.6 (67491) - http://www.bohemiancoding.com/sketch -->
    <title>CONSI ICON</title>
    <desc>Created with Sketch.</desc>
    <g id="VERSION-OK" stroke="none" stroke-width="1" fill="none" fill-rule="evenodd">
        <g id="Desktop_BuffetJS" transform="translate(-933.000000, -2196.000000)">
            <g id="Philosophy" transform="translate(312.000000, 1827.000000)">
                <g id="CONSI-ICON" transform="translate(622.000000, 370.000000)">
                    <path d="M80,139 C112.5848,139 139,112.5848 139,80 C139,47.4151998 112.5848,21 80,21 C47.4151998,21 21,47.4151998 21,80 C21,112.5848 47.4151998,139 80,139 Z" id="Oval" stroke="#0B269C" stroke-dasharray="1,4"></path>
                    <path d="M80,160 C124.18278,160 160,124.18278 160,80 C160,35.81722 124.18278,0 80,0 C35.81722,0 0,35.81722 0,80 C0,124.18278 35.81722,160 80,160 Z" id="Oval" stroke="#0B269C" stroke-dasharray="1,4"></path>
                    <g id="Group-15" transform="translate(48.000000, 59.000000)" fill="#73F494" opacity="0.4">
                        <path d="M24.4554975,18.6408632 C17.9138506,12.4371043 8.88008012,10.0389832 0.410379319,11.4436739 C-1.0709598,19.4758992 1.45791695,28.0430588 7.99956386,34.2468177 C14.5412108,40.4505765 23.5749812,42.8488322 32.044682,41.4440069 C33.5258792,33.4117817 30.9971444,24.844622 24.4554975,18.6408632" id="Fill-1"></path>
                        <path d="M43.2283106,21.6158912 C43.2283106,12.8424286 38.6284823,5.08877293 31.5921569,0.40234375 C24.5558316,5.08877293 19.9560033,12.8424286 19.9560033,21.6158912 C19.9560033,30.3893539 24.5558316,38.1430095 31.5921569,42.8293041 C38.6284823,38.1430095 43.2283106,30.3893539 43.2283106,21.6158912" id="Fill-12"></path>
                        <path d="M55.4981693,34.2468672 C62.0398162,28.0431084 64.568551,19.4759487 63.0873538,11.4437235 C54.617653,10.0388982 45.5838826,12.4371539 39.0422357,18.6409127 C32.5005887,24.8446716 29.971712,33.4118313 31.4530511,41.4440565 C39.9227519,42.8487472 48.9565224,40.4506261 55.4981693,34.2468672" id="Fill-5"></path>
                    </g>
                </g>
            </g>
        </g>
    </g>
</svg>