<?xml version="1.0" encoding="UTF-8"?>
<svg width="109px" height="24px" viewBox="0 0 109 24" version="1.1" xmlns="http://www.w3.org/2000/svg" xmlns:xlink="http://www.w3.org/1999/xlink">
    <!-- Generator: Sketch 52.6 (67491) - http://www.bohemiancoding.com/sketch -->
    <title>GitStars</title>
    <desc>Created with Sketch.</desc>
    <g id="VERSION-OK" stroke="none" stroke-width="1" fill="none" fill-rule="evenodd">
        <g id="Desktop_BuffetJS" transform="translate(-806.000000, -24.000000)">
            <g id="Header">
                <g id="GitStars" transform="translate(806.000000, 24.000000)">
                    <rect id="Rectangle" stroke="#F3F3F3" fill="#FAFAFB" x="0.5" y="0.5" width="108" height="23" rx="2"></rect>
                    <path d="M58,1 L106,1 C107.104569,1 108,1.8954305 108,3 L108,21 C108,22.1045695 107.104569,23 106,23 L58,23 L58,1 Z" id="Rectangle" fill="#FFFFFF"></path>
                    <path d="M12.7702228,6.1949112 C12.7327865,6.0791249 12.6204777,6.00012358 12.4929604,6.00000014 C12.3655731,5.99987671 12.2528744,6.07863114 12.2151781,6.19404713 L10.9164775,10.178676 C10.8789113,10.2940919 10.7663425,10.3728464 10.6390852,10.3728464 L6.29023856,10.3728464 C6.16428112,10.3728464 6.05249226,10.4501195 6.0138861,10.5641777 C5.97540994,10.6782358 6.01869562,10.8027864 6.12138539,10.8726531 L9.66678207,13.2839214 C9.76960183,13.3536648 9.81275752,13.478709 9.77402139,13.5928906 L8.39784853,17.6394861 C8.3589824,17.7539146 8.40265805,17.8789588 8.50586776,17.9488256 C8.60894749,18.018569 8.74751368,18.0169643 8.84877359,17.9443818 L12.3199477,15.4636171 C12.4230274,15.3899237 12.5653632,15.3895533 12.6687029,15.4632468 L16.150016,17.9409255 C16.2508859,18.0127673 16.3893221,18.0144955 16.4921419,17.9451224 C16.5949616,17.875626 16.6388973,17.7511989 16.6006811,17.6368939 L15.2537553,13.603383 C15.2159291,13.4900655 15.2585648,13.3666259 15.3598247,13.2968826 L18.8787041,10.8716656 C18.9803539,10.801552 19.0231197,10.6772483 18.9843835,10.5634371 C18.9455174,10.4497492 18.8341185,10.3729698 18.708291,10.3729698 L14.3316272,10.3729698 C14.2042399,10.3729698 14.0916711,10.2937216 14.0542348,10.1780588 L12.7702228,6.1949112 Z" id="Path" fill="#010101"></path>
                    <text id="Stars" font-family="Lato-Medium, Lato" font-size="12" font-weight="400" line-spacing="12" fill="#3B3B3B">
                        <tspan x="25" y="18">Stars</tspan>
                    </text>
                    <text id="13,322" font-family="Lato-Medium, Lato" font-size="12" font-weight="400" line-spacing="12" fill="#3B3B3B">
                        <tspan x="64" y="18">13,322</tspan>
                    </text>
                </g>
            </g>
        </g>
    </g>
</svg>