<?xml version="1.0" encoding="UTF-8"?>
<svg width="28px" height="28px" viewBox="0 0 28 28" version="1.1" xmlns="http://www.w3.org/2000/svg" xmlns:xlink="http://www.w3.org/1999/xlink">
    <!-- Generator: Sketch 52.6 (67491) - http://www.bohemiancoding.com/sketch -->
    <title>Slack</title>
    <desc>Created with Sketch.</desc>
    <g id="VERSION-OK" stroke="none" stroke-width="1" fill="none" fill-rule="evenodd">
        <g id="Desktop_BuffetJS" transform="translate(-950.000000, -22.000000)" fill="#0B269C">
            <g id="Header">
                <g id="SN" transform="translate(949.000000, 21.000000)">
                    <path d="M23.303037,12.7817778 C23.3040741,13.7000741 22.56,14.4446667 21.6427407,14.4451852 L19.9819257,14.4451852 L19.9819259,12.7817778 C19.9814074,11.8634815 20.7244444,11.1188889 21.6427407,11.1178519 C22.56,11.1188889 23.3040741,11.8634815 23.303037,12.7817778 Z M21.6427407,18.8826667 L17.2145926,18.8826667 C16.2962963,18.8816296 15.5527407,18.1365185 15.5537778,17.2187407 C15.5532593,16.3004444 16.2962963,15.5558519 17.2145926,15.5548148 L21.6427407,15.5548148 C22.5605185,15.5558519 23.3040741,16.3004444 23.303037,17.2187407 C23.3040741,18.1365185 22.56,18.8816296 21.6427407,18.8826667 Z M18.8748889,21.6557037 C18.8759259,22.574 18.1318519,23.3185926 17.2145926,23.3191111 L17.2140741,23.3191111 C16.2957778,23.3180741 15.5527407,22.5734815 15.5537778,21.6551852 L15.5537767,19.9917778 L17.2145926,19.9917778 C18.1318519,19.9922963 18.8759259,20.7374074 18.8748889,21.6551852 L18.8748889,21.6557037 Z M15.5537778,8.34481481 L15.5537778,8.3442963 C15.5532593,7.42651852 16.2962963,6.68140741 17.2145926,6.68088889 C18.1323704,6.68192593 18.8759259,7.42651852 18.8748889,8.34481481 L18.8748889,12.7817778 C18.8759259,13.7000741 18.1318519,14.4446667 17.2145926,14.4451852 L17.2140741,14.4451852 C16.2957778,14.4446667 15.5527407,13.6995556 15.5537778,12.7817778 L15.5537778,8.34481481 Z M14.4467418,10.0082222 L12.7859259,10.0082222 C11.8681481,10.0071852 11.1245926,9.26259259 11.1256296,8.34481481 L11.1256296,8.3442963 C11.1245926,7.42651852 11.8681481,6.68140741 12.7859259,6.68088889 L12.7864444,6.68088889 C13.7042222,6.68192593 14.4477778,7.42651852 14.4467407,8.34481481 L14.4467418,10.0082222 Z M14.4467407,12.7817778 C14.4472593,13.7000741 13.7042222,14.4446667 12.7859259,14.4451852 L8.35777778,14.4451852 C7.43948148,14.4446667 6.69644444,13.6995556 6.69748148,12.7817778 C6.69644444,11.8634815 7.44,11.1188889 8.35777778,11.1178519 L12.7859259,11.1178519 C13.7042222,11.1188889 14.4472593,11.8634815 14.4467407,12.7817778 Z M14.4467407,21.6551852 L14.4467407,21.6557037 C14.4472593,22.574 13.7042222,23.3185926 12.7859259,23.3191111 C11.8676296,23.3180741 11.1245926,22.5734815 11.1256296,21.6551852 L11.1256296,17.2192593 L11.1256296,17.2187407 C11.1245926,16.3004444 11.8681481,15.5558519 12.7859259,15.5553333 L12.7864444,15.5553333 C13.7042222,15.5563704 14.4477778,16.300963 14.4467407,17.2192593 L14.4467407,21.6551852 Z M10.0185926,17.2187407 C10.0191111,18.1365185 9.27607407,18.8816296 8.35777778,18.8826667 C7.44,18.8816296 6.69644444,18.1365185 6.69748148,17.2187407 C6.69644444,16.3004444 7.44,15.5558519 8.35777778,15.5548148 L10.0185929,15.5548148 L10.0185926,17.2187407 Z M15,1 C7.26837037,1 1,7.26785185 1,15 C1,22.7316296 7.26837037,29 15,29 C22.7321481,29 29,22.7316296 29,15 C29,7.26785185 22.7321481,1 15,1 Z" id="Slack" transform="translate(15.000000, 15.000000) rotate(1.000000) translate(-15.000000, -15.000000) "></path>
                </g>
            </g>
        </g>
    </g>
</svg>