<svg xmlns="http://www.w3.org/2000/svg" width="162" height="162" viewBox="0 0 162 162">
    <g fill="none" fill-rule="evenodd">
        <path stroke="#0B269C" stroke-dasharray="1,4" d="M81 140c32.585 0 59-26.415 59-59s-26.415-59-59-59-59 26.415-59 59 26.415 59 59 59z"/>
        <path stroke="#0B269C" stroke-dasharray="1,4" d="M81 161c44.183 0 80-35.817 80-80S125.183 1 81 1 1 36.817 1 81s35.817 80 80 80z"/>
        <g opacity=".3">
            <path fill="#73F494" d="M50.314 80.205a6.661 6.661 0 1 1 0-13.322 6.661 6.661 0 0 1 0 13.322m0-16.116a9.454 9.454 0 1 0 0 18.909 9.454 9.454 0 0 0 0-18.909"/>
            <path fill="#73F494" d="M50.314 80.205c-9.256 0-16.76 7.503-16.76 16.76h2.794c0-7.714 6.253-13.967 13.966-13.967 7.714 0 13.967 6.253 13.967 13.966h2.793c0-9.256-7.503-16.76-16.76-16.76"/>
            <path fill="#8FACFF" d="M81.04 80.42a6.66 6.66 0 1 1 0-13.322 6.66 6.66 0 0 1 0 13.322m0-16.116a9.454 9.454 0 1 0 0 18.909 9.454 9.454 0 0 0 0-18.909"/>
            <path fill="#8FACFF" d="M81.04 80.42c-9.256 0-16.76 7.503-16.76 16.76h2.794c0-7.714 6.253-13.967 13.967-13.967 7.713 0 13.966 6.253 13.966 13.966h2.794c0-9.256-7.504-16.76-16.76-16.76"/>
            <path fill="#F4DB73" d="M111.767 80.42a6.661 6.661 0 1 1 0-13.322 6.661 6.661 0 0 1 0 13.322m0-16.116a9.454 9.454 0 1 0 0 18.909 9.454 9.454 0 0 0 0-18.909"/>
            <path fill="#F4DB73" d="M111.767 80.42c-9.256 0-16.76 7.503-16.76 16.76h2.794c0-7.714 6.253-13.967 13.966-13.967 7.713 0 13.967 6.253 13.967 13.966h2.793c0-9.256-7.504-16.76-16.76-16.76"/>
        </g>
    </g>
</svg>
