<?xml version="1.0" encoding="UTF-8"?>
<svg width="217px" height="35px" viewBox="0 0 217 35" version="1.1" xmlns="http://www.w3.org/2000/svg" xmlns:xlink="http://www.w3.org/1999/xlink">
    <!-- Generator: Sketch 52.6 (67491) - http://www.bohemiancoding.com/sketch -->
    <title>LOGO</title>
    <desc>Created with Sketch.</desc>
    <defs>
        <polygon id="path-1" points="0 35 223 35 223 0 0 0"></polygon>
    </defs>
    <g id="VERSION-OK" stroke="none" stroke-width="1" fill="none" fill-rule="evenodd">
        <g id="Desktop_BuffetJS" transform="translate(-101.000000, -21.000000)">
            <g id="Header">
                <g id="LOGO" transform="translate(101.000000, 21.000000)">
                    <g id="Texte" transform="translate(48.000000, 8.000000)">
                        <path d="M14.8561644,4.6784 C14.8561644,2.672 13.5924658,1.33365854 10.8184932,1.33365854 L9.5239726,1.33365854 L7.85958904,9.14645854 C8.50684932,9.26805854 9.77054795,9.32885854 10.0171233,9.32885854 C13.6232877,9.32885854 14.8561644,6.776 14.8561644,4.6784 Z M8.81506849,19.6656 C12.2979452,19.6048 13.9315068,16.7768585 13.9315068,14.1328 C13.9315068,11.2440585 11.8664384,9.6032 8.35273973,9.6032 L7.76712329,9.6032 L5.70205479,19.1488 L7.33561644,19.696 L8.81506849,19.6656 Z M0.0924657534,19.8176 L1.23212496,19.696 C2.34246575,19.5744 2.80479452,19.392 2.83561644,19.2096 L6.59589041,1.69845854 C6.62671233,1.48565854 6.44178082,1.45525854 4.86986301,1.27285854 L4.12938523,1.18165854 L4.09856331,1 L11.4965753,1 C16.5513699,1 18,3.24885854 18,5.13365854 C18,7.8096 15.5958904,9.4208 11.1267123,9.5728 L11.1267123,9.6032 C15.1027397,10.1808 17.0445205,12.2784 17.0445205,14.5888 C17.0136986,18.176 13.6232877,20 7.36643836,20 L0,20 L0.0924657534,19.8176 Z" id="Fill-1" fill="#2D2D2D"></path>
                        <path d="M24.1891892,15.9681796 C24.1891892,15.1557105 24.3468468,14.1244998 24.5675676,13.1245379 L26.9954955,1.71872261 C27.027027,1.49998095 26.8693694,1.40623452 25.2297297,1.28047712 L24.0315315,1.18673069 L24,1 L33.2387387,1 L33.1126126,1.18673069 L31.536036,1.31248809 C30.4009009,1.40623452 29.9279279,1.62497618 29.8963964,1.81246904 L27.5315315,12.9057963 C27.3108108,13.8745094 27.2162162,14.7182272 27.2162162,15.4681986 C27.2162162,18.6555772 29.3603604,20.0930224 32.9234234,20.0930224 C36.0765766,20.0930224 37.9369369,18.1555962 38.8828829,13.7182653 L41.3108108,2.43744522 C41.4369369,1.90621546 40.9324324,1.46873214 39.0720721,1.24922831 L38.5045045,1.18673069 L38.472973,1 L45,1 L44.8738739,1.18673069 L44.2747748,1.24922831 C42.8558559,1.40623452 41.8783784,1.84371785 41.7522523,2.49994284 L39.2927928,13.8432605 C38.3153153,18.4055867 36.518018,21 32.1036036,21 C27.6891892,21 24.1891892,19.499295 24.1891892,15.9681796" id="Fill-3" fill="#2D2D2D"></path>
                        <path d="M45.0961214,19.8176 L46.4097808,19.696 C47.5632378,19.6048 47.915683,19.392 47.9477234,19.2096 L51.856661,1.69845854 C51.8887015,1.48565854 51.8246206,1.42485854 50.1905565,1.27285854 L49.2934233,1.18165854 L49.2613828,1 L63.8397976,1 L64,6.89685854 L63.8077572,6.92725854 L63.6475548,6.5328 C62.4940978,3.37045854 61.9173693,1.27285854 57.3676223,1.27285854 L54.9325464,1.27285854 L52.9139966,10.2416 L54.4198988,10.2112 C57.8482293,10.0592 58.8735245,9.664 59.8347386,7.6576 L60.0590219,7.23125854 L60.2833052,7.26165854 L58.8735245,13.6768 L58.6492411,13.6464 L58.6812816,13.2208 C58.841484,10.8792585 57.7200675,10.7576585 54.1315346,10.576 L52.8499157,10.5152 L50.8954469,19.3008 C50.8634064,19.5136 51.0236088,19.6352 52.6897133,19.7264 L54.227656,19.8176 L54.2596965,20 L45,20 L45.0961214,19.8176 Z" id="Fill-5" fill="#2D2D2D"></path>
                        <path d="M66.0961214,19.8176 L67.4097808,19.696 C68.5632378,19.6048 68.915683,19.392 68.9477234,19.2096 L72.856661,1.69845854 C72.8887015,1.48565854 72.8246206,1.42485854 71.1905565,1.27285854 L70.2934233,1.18165854 L70.2613828,1 L84.8397976,1 L85,6.89685854 L84.8077572,6.92725854 L84.6475548,6.5328 C83.4940978,3.37045854 82.9173693,1.27285854 78.3676223,1.27285854 L75.9325464,1.27285854 L73.9139966,10.2416 L75.4198988,10.2112 C78.8482293,10.0592 79.8735245,9.664 80.8347386,7.6576 L81.0590219,7.23125854 L81.2833052,7.26165854 L79.8735245,13.6768 L79.6492411,13.6464 L79.6812816,13.2208 C79.841484,10.8792585 78.7200675,10.7576585 75.1315346,10.576 L73.8499157,10.5152 L71.8954469,19.3008 C71.8634064,19.5136 72.0236088,19.6352 73.6897133,19.7264 L75.227656,19.8176 L75.2596965,20 L66,20 L66.0961214,19.8176 Z" id="Fill-7" fill="#2D2D2D"></path>
                        <path d="M87.0926244,19.8176 L88.1114923,19.696 C89.2229846,19.5744 89.8096055,19.392 89.8404803,19.2096 L93.6072041,1.69845854 C93.6380789,1.48565854 93.4528302,1.45525854 91.8782161,1.27285854 L91.1372213,1.18165854 L91.1063465,1 L104.629503,1 L105,6.89685854 L104.814751,6.92725854 L104.691252,6.5328 C103.57976,3.37045854 103.054889,1.27285854 98.670669,1.27285854 L96.5403087,1.27285854 L94.6878216,10.0592 L96.1080617,10.0288 C99.4116638,9.8768 100.399657,9.4816 101.356775,7.4448 L101.572899,7.01845854 L101.789022,7.04885854 L100.399657,13.4944 L100.183533,13.464 L100.245283,13.0376585 C100.554031,10.6976 99.3499142,10.576 95.8610635,10.3936 L94.5951973,10.3328 L92.619211,19.5744 L96.4476844,19.7264 C100.801029,19.6656 102.530017,17.0208 104.320755,14.224 L104.629503,13.7984 L104.783877,13.8288 L102.499142,20 L87,20 L87.0926244,19.8176 Z" id="Fill-9" fill="#2D2D2D"></path>
                        <path d="M112.617696,19.8176 L114.235392,19.696 C115.377295,19.6048 115.853088,19.392 115.884808,19.2096 L119.81803,1.27285854 L118.136895,1.27285854 C115.155259,1.45525854 112.871452,3.7664 111.412354,6.0768 L111.158598,6.472 L111,6.472 L112.808013,1 L130,1 L129.30217,6.472 L129.175292,6.472 L129.111853,6.1072 C128.604341,2.9152 127.145242,1.39445854 124.322204,1.27285854 L122.799666,1.27285854 L118.803005,19.3008 C118.771285,19.5136 118.929883,19.6048 120.579299,19.7264 L121.784641,19.8176 L121.816361,20 L112.522538,20 L112.617696,19.8176 Z" id="Fill-11" fill="#2D2D2D"></path>
                        <path d="M129,18.9656954 C129,17.949783 129.840336,17 130.983193,17 C132.12605,17 133,17.949783 133,18.9656954 C133,20.050217 132.159664,21 131.016807,21 C129.87395,21 129,20.050217 129,18.9656954" id="Fill-13" fill="#F4DB73"></path>
                        <path d="M136,24.0744949 C136,23.0643939 136.833977,22.2121212 137.88417,22.2121212 C139.891892,22.2121212 140.169884,24.6426768 138.563707,25.5896465 C140.07722,25.9684343 141.590734,23.979798 142.301158,20.4760101 L146.19305,1.7260101 C146.223938,1.50505051 146.03861,1.44191919 144.46332,1.28332102 L143.598456,1.18862405 L143.567568,1 L152,1 L151.876448,1.18862405 L150.640927,1.31488667 C149.498069,1.44191919 149.065637,1.63131313 149.034749,1.82070707 L144.988417,21.3598485 C144.710425,22.8118687 141.158301,26 138.471042,26 C136.833977,26 136,25.1169315 136,24.0744949" id="Fill-15" fill="#2D2D2D"></path>
                        <path d="M153.259276,18.98415 L154.133943,14.4954 L154.258895,14.4954 L154.696229,16.3404 C155.352229,19.10715 157.351467,20.3994 159.788038,20.3994 C162.443276,20.3994 164.598705,18.27765 164.598705,15.66315 C164.598705,13.8489 163.161752,12.5274 160.850133,11.35815 C158.28861,10.0359 156.445562,8.40615 156.445562,5.9154 C156.445562,3.4554 158.632229,0.6879 162.505752,0.6879 C164.473752,0.6879 166.16061,1.27215 167.566324,1.8564 L168.722133,1.57965 L167.722514,6.49965 L167.6288,6.4689 L166.410514,2.5944 C165.598324,1.76415 164.411276,0.99615 162.818133,0.99615 C160.662705,0.99615 158.819657,2.50215 158.819657,4.68615 C158.819657,6.49965 159.725562,7.4529 162.474514,8.86815 C165.442133,10.4364 167.191467,12.03465 167.191467,14.6184 C167.191467,17.38515 164.536229,20.7069 160.006705,20.7069 C156.820419,20.7069 154.290133,19.66065 153.259276,18.98415" id="Fill-17" fill="#2D2D2D"></path>
                    </g>
                    <g id="Picto">
                        <path d="M35,17.5003841 C35,27.1651996 27.1653716,35 17.5,35 C7.83539664,35 0,27.1651996 0,17.5003841 C0,7.83480036 7.83539664,0 17.5,0 C27.1653716,0 35,7.83480036 35,17.5003841" id="Fill-20" fill="#0B269C"></path>
                        <mask id="mask-2" fill="white">
                            <use xlink:href="#path-1"></use>
                        </mask>
                        <g id="Clip-23"></g>
                        <polygon id="Fill-22" fill="#FFFFFF" mask="url(#mask-2)" points="8 23 28 23 28 22 8 22"></polygon>
                        <path d="M8.02043552,21 C7.67038397,15.8165003 11.8592559,11.348169 17.3762877,11.0192799 C22.8941026,10.6896549 27.6499484,14.6260244 28,19.8095241 L8.02043552,21 Z" id="Fill-24" fill="#FFFFFF" mask="url(#mask-2)"></path>
                        <path d="M17.9989854,10.4686319 C18.016411,10.7445551 17.8073036,10.9821395 17.5313979,10.9989853 C17.2560731,11.0164121 17.0185038,10.8072913 17.0010782,10.5313681 C16.9830717,10.2560258 17.19276,10.0190223 17.4680848,10.0010147 C17.7439905,9.98358794 17.9815598,10.1927087 17.9989854,10.4686319" id="Fill-25" fill="#FFFFFF" mask="url(#mask-2)"></path>
                    </g>
                </g>
            </g>
        </g>
    </g>
</svg>