<?xml version="1.0" encoding="UTF-8"?>
<svg width="162px" height="162px" viewBox="0 0 162 162" version="1.1" xmlns="http://www.w3.org/2000/svg" xmlns:xlink="http://www.w3.org/1999/xlink">
    <!-- Generator: Sketch 52.6 (67491) - http://www.bohemiancoding.com/sketch -->
    <title>OS ICON</title>
    <desc>Created with Sketch.</desc>
    <defs>
        <polygon id="path-1" points="0 0.0815230769 20.7933385 0.0815230769 20.7933385 20.8748885 0 20.8748885"></polygon>
        <polygon id="path-3" points="0.0730692308 0.206742308 20.8661654 0.206742308 20.8661654 21 0.0730692308 21"></polygon>
    </defs>
    <g id="VERSION-OK" stroke="none" stroke-width="1" fill="none" fill-rule="evenodd">
        <g id="Desktop_BuffetJS" transform="translate(-352.000000, -1951.000000)">
            <g id="Philosophy" transform="translate(312.000000, 1827.000000)">
                <g id="OS-ICON" transform="translate(41.000000, 125.000000)">
                    <path d="M80,139 C112.5848,139 139,112.5848 139,80 C139,47.4151998 112.5848,21 80,21 C47.4151998,21 21,47.4151998 21,80 C21,112.5848 47.4151998,139 80,139 Z" id="Oval" stroke="#0B269C" stroke-dasharray="1,4"></path>
                    <path d="M80,160 C124.18278,160 160,124.18278 160,80 C160,35.81722 124.18278,0 80,0 C35.81722,0 0,35.81722 0,80 C0,124.18278 35.81722,160 80,160 Z" id="Oval" stroke="#0B269C" stroke-dasharray="1,4"></path>
                    <g id="Group-11" transform="translate(54.000000, 54.000000)">
                        <g id="Group-3" transform="translate(0.000000, 20.000000)">
                            <mask id="mask-2" fill="white">
                                <use xlink:href="#path-1"></use>
                            </mask>
                            <g id="Clip-2"></g>
                            <path d="M8.98999231,9.07154231 C7.40233846,10.6591962 4.82795385,10.6591962 3.2403,9.07154231 C1.65237692,7.48388846 1.65237692,4.90950385 3.2403,3.32185 C4.82795385,1.73392692 7.40233846,1.73392692 8.98999231,3.32185 C10.5776462,4.90950385 10.5776462,7.48388846 8.98999231,9.07154231 M10.4389923,1.87258077 C8.05118462,-0.515496154 4.17910769,-0.515496154 1.79103077,1.87258077 C-0.597046154,4.26065769 -0.597046154,8.13246538 1.79103077,10.5205423 C3.86653077,12.5960423 7.06203077,12.8674269 9.43099231,11.3355038 L18.9701077,20.8748885 L20.7933385,19.0516577 L11.2539538,9.51254231 C12.7858769,7.14358077 12.5144923,3.94808077 10.4389923,1.87258077" id="Fill-1" fill="#F4DB73" mask="url(#mask-2)"></path>
                        </g>
                        <g id="Group-6" transform="translate(20.000000, 32.000000)">
                            <mask id="mask-4" fill="white">
                                <use xlink:href="#path-3"></use>
                            </mask>
                            <g id="Clip-5"></g>
                            <path d="M9.06281923,12.0100885 C10.6504731,13.5977423 10.6504731,16.1721269 9.06281923,17.7597808 C7.47516538,19.3474346 4.90078077,19.3474346 3.31312692,17.7597808 C1.72547308,16.1721269 1.72547308,13.5977423 3.31312692,12.0100885 C4.90078077,10.4224346 7.47516538,10.4224346 9.06281923,12.0100885 M1.86412692,10.5610885 C-0.52395,12.9488962 -0.52395,16.8209731 1.86412692,19.20905 C4.25220385,21.5971269 8.12401154,21.5971269 10.5120885,19.20905 C12.5873192,17.13355 12.8587038,13.93805 11.3267808,11.5690885 L20.8661654,2.02997308 L19.0429346,0.206742308 L9.50381923,9.74585769 C7.13512692,8.21420385 3.93935769,8.48558846 1.86412692,10.5610885" id="Fill-4" fill="#8FACFF" mask="url(#mask-4)"></path>
                        </g>
                        <path d="M42.9207966,23.9206422 C44.5242485,22.317211 47.1242498,22.317211 48.7277018,23.9206422 C50.3311537,25.5240734 50.3311537,28.124041 48.7277018,29.7274722 C47.1242498,31.3309034 44.5242485,31.3309034 42.9207966,29.7274722 C41.3173446,28.124041 41.3173446,25.5240734 42.9207966,23.9206422 M41.4571062,31.1911436 C43.868946,33.6029521 47.7792805,33.6029521 50.1911202,31.1911436 C52.6029599,28.7793351 52.6029599,24.8690512 50.1911202,22.4572427 C48.0952396,20.3611174 44.8676706,20.0870359 42.4751364,21.6341825 L32.841373,12 L31,13.8413492 L40.6340353,23.4752598 C39.0871406,25.8677629 39.3612257,29.0950183 41.4571062,31.1911436" id="Fill-7" fill="#73F494"></path>
                        <path d="M22.9209141,9.07920343 C21.3174829,7.47575147 21.3174829,4.87602209 22.9209141,3.27229822 C24.5243453,1.66884626 27.124041,1.66884626 28.7274722,3.27229822 C30.3311753,4.87602209 30.3311753,7.47575147 28.7274722,9.07920343 C27.124041,10.6826554 24.5243453,10.6826554 22.9209141,9.07920343 M30.1911436,10.5428938 C32.6029521,8.13105404 32.6029521,4.22044762 30.1911436,1.8088798 C27.7793351,-0.602959932 23.8690512,-0.602959932 21.4572427,1.8088798 C19.3613893,3.90476036 19.0870359,7.13232943 20.6341825,9.52459165 L11,19.1588989 L12.8413492,21 L22.4752598,11.3659647 C24.8677629,12.9128594 28.0952902,12.6387743 30.1911436,10.5428938" id="Fill-9" fill="#F79F72"></path>
                    </g>
                </g>
            </g>
        </g>
    </g>
</svg>