<?xml version="1.0" encoding="UTF-8"?>
<svg width="11px" height="16px" viewBox="0 0 11 16" version="1.1" xmlns="http://www.w3.org/2000/svg" xmlns:xlink="http://www.w3.org/1999/xlink">
    <!-- Generator: Sketch 52.6 (67491) - http://www.bohemiancoding.com/sketch -->
    <title>Scroll Icon</title>
    <desc>Created with Sketch.</desc>
    <g id="VERSION-OK" stroke="none" stroke-width="1" fill="none" fill-rule="evenodd">
        <g id="Desktop_BuffetJS" transform="translate(-1163.000000, -660.000000)" fill="#0B269C">
            <g id="HeroBanner-Text" transform="translate(702.000000, 312.000000)">
                <g id="Scroll-Icon" transform="translate(461.000000, 348.000000)">
                    <g id="Group">
                        <path d="M5.38085937,0 C2.42305779,0 0,2.30767409 0,5.12462798 L0,10.249256 C0,13.0662098 2.42305779,15.3738839 5.38085937,15.3738839 C8.33866096,15.3738839 10.7617187,13.0662098 10.7617187,10.249256 L10.7617187,5.10871298 C10.7617187,2.29175909 8.33866096,0 5.38085937,0 Z M9.99302455,10.233341 C9.99302455,12.65242 7.92089237,14.6258792 5.38085937,14.6258792 C2.84082638,14.6258792 0.768694196,12.636505 0.768694196,10.233341 L0.768694196,5.10871298 C0.768694196,2.70554893 2.84082638,0.716174717 5.38085937,0.716174717 C7.92089237,0.716174717 9.99302455,2.68963394 9.99302455,5.10871298 L9.99302455,10.233341 Z" id="Shape" fill-rule="nonzero"></path>
                        <path d="M5.39757012,3.34214868 C5.18033045,3.34214868 5.01322302,3.50129862 5.01322302,3.70819354 L5.01322302,5.53841781 C5.01322302,5.74531273 5.18033045,5.90446267 5.39757012,5.90446267 C5.61480978,5.90446267 5.78191722,5.74531273 5.78191722,5.53841781 L5.78191722,3.70819354 C5.78191722,3.51721361 5.61480978,3.34214868 5.39757012,3.34214868 Z" id="Path"></path>
                    </g>
                </g>
            </g>
        </g>
    </g>
</svg>