<svg xmlns="http://www.w3.org/2000/svg" xmlns:xlink="http://www.w3.org/1999/xlink" width="223" height="35" viewBox="0 0 223 35">
    <defs>
        <path id="a" d="M0 35h223V0H0z"/>
    </defs>
    <g fill="none" fill-rule="evenodd">
        <g>
            <path fill="#0B269C" d="M35 17.5C35 27.165 27.165 35 17.5 35S0 27.165 0 17.5 7.835 0 17.5 0 35 7.835 35 17.5"/>
            <mask id="b" fill="#fff">
                <use xlink:href="#a"/>
            </mask>
            <path fill="#FFF" d="M8 24h20v-2H8zM8.02 21c-.35-5.183 3.84-9.652 9.356-9.98 5.518-.33 10.274 3.606 10.624 8.79L8.02 21z" mask="url(#b)"/>
            <path fill="#FFF" d="M18.997 10.406a1.5 1.5 0 1 1-2.994.189 1.5 1.5 0 0 1 2.994-.19" mask="url(#b)"/>
        </g>
        <path fill="#3B3B3B" d="M66.1 16.17c1.95 0 6.78.33 6.78 5.46 0 5.25-4.29 5.37-9.48 5.37h-7.29v-.27c1.29 0 1.74-1.8 1.74-3.84V10.02c0-1.86-.42-3.9-1.74-3.9v-.24h7.29c4.17 0 8.07-.18 8.07 5.1 0 4.47-4.77 5.19-5.37 5.19zm-2.7-9.78h-1.17v9.66h1.17c1.62 0 3.9-.69 3.9-5.13 0-4.47-2.49-4.53-3.9-4.53zm0 20.1c2.61 0 5.07.06 5.07-5.01 0-4.77-3.06-4.92-5.07-4.92h-1.17v9.93h1.17zM98.38 5.88v.51c-4.53-.03-4.47 4.5-4.47 4.5v8.91c0 6.42-4.77 7.47-7.41 7.47-4.08 0-7.44-2.76-7.44-7.65V9.03c0-1.83-1.08-2.64-2.4-2.64v-.51h9.54v.51c-1.29 0-2.79.48-2.79 2.64v10.8c0 3.54 2.19 5.64 5.04 5.64 2.28 0 4.95-1.89 4.95-5.67v-8.91s.06-4.53-4.08-4.5v-.51h9.06zm2.73 0h16.83v5.7h-.51c-1.05-5.46-9.18-5.19-9.18-5.19h-1.05v9.66h1.05s4.62.12 5.16-3.09h.51v6.75h-.51c-.54-3.21-5.16-3.09-5.16-3.09h-1.05v6.27c0 3.39 1.29 3.6 2.58 3.6V27h-8.67v-.51c1.29 0 1.74-1.56 1.74-3.6V10.02c0-1.86-.42-3.63-1.74-3.63v-.51zm19.56 0h16.83v5.7h-.51c-1.05-5.46-9.18-5.19-9.18-5.19h-1.05v9.66h1.05s4.62.12 5.16-3.09h.51v6.75h-.51c-.54-3.21-5.16-3.09-5.16-3.09h-1.05v6.27c0 3.39 1.29 3.6 2.58 3.6V27h-8.67v-.51c1.29 0 1.74-1.56 1.74-3.6V10.02c0-1.86-.42-3.63-1.74-3.63v-.51zm36 14.58h.51V27h-16.89v-.51c1.26 0 1.74-1.56 1.74-3.6V10.02c0-1.86-.42-3.63-1.74-3.63v-.51h16.5v5.7h-.51c-.69-5.19-8.82-5.19-8.82-5.19h-1.08v9.69h1.08s4.56 0 4.86-3.12h.51v6.75h-.51c-.3-3.12-4.86-3.12-4.86-3.12h-1.08v9.9h1.08s7.95 0 9.21-6.03zm4.47-14.58h19.74v6.03h-.51c-.24-5.37-6.63-5.52-6.63-5.52h-.57v16.98c0 2.04 1.29 3.12 2.55 3.12V27h-9.45v-.51c1.26 0 2.55-1.08 2.55-3.12V6.39h-.57s-6.36.15-6.6 5.52h-.51V5.88zm26.61 18.75c0 1.41-1.14 2.52-2.52 2.52-1.41 0-2.55-1.11-2.55-2.52s1.14-2.55 2.55-2.55c1.38 0 2.52 1.14 2.52 2.55zm6-18.75h9.54v.51c-1.35 0-2.61.84-2.61 2.76v12.39c0 7.23-4.44 9.75-9.33 10.47l-.12-.51c2.58-.93 4.98-3.45 4.98-9.96v-8.73c0-5.64 0-6.42-2.46-6.42v-.51zm24.69 9.81c3.96 2.61 5.61 5.85 3.36 9.12 0 0-1.41 2.46-6.24 2.46-5.82 0-8.22-1.86-8.22-1.86v-5.76h.51c.66 1.83 2.37 7.11 7.71 7.11 3.21 0 4.2-4.35.54-7.02l-4.62-2.91c-4.26-2.67-5.85-5.67-3.36-8.94 0 0 1.47-2.28 6.21-2.28 5.13 0 7.71 1.44 7.71 1.44v5.04h-.51c-.57-1.59-2.4-5.97-7.2-5.97-3.24 0-4.41 3.96-.51 6.51l4.62 3.06z"/>
    </g>
</svg>
